<?xml version="1.0" standalone="no"?><!DOCTYPE svg PUBLIC "-//W3C//DTD SVG 1.1//EN" "http://www.w3.org/Graphics/SVG/1.1/DTD/svg11.dtd"><svg t="1765199406571" class="icon" viewBox="0 0 1024 1024" version="1.1" xmlns="http://www.w3.org/2000/svg" p-id="27690" width="48" height="48" xmlns:xlink="http://www.w3.org/1999/xlink"><path d="M146.285714 0a146.285714 146.285714 0 0 0-146.285714 146.285714v731.428572a146.285714 146.285714 0 0 0 146.285714 146.285714h731.428572a146.285714 146.285714 0 0 0 146.285714-146.285714V146.285714a146.285714 146.285714 0 0 0-146.285714-146.285714H146.285714z m121.417143 725.869714a10.24 10.24 0 0 1-16.822857-7.753143V637.805714c0-2.925714 1.462857-5.851429 3.657143-7.826285L395.190857 512 254.610286 393.947429a9.728 9.728 0 0 1-3.657143-7.753143V305.883429a10.24 10.24 0 0 1 16.676571-7.753143l245.76 205.970285a10.166857 10.166857 0 0 1 0 15.725715L267.702857 725.869714z m495.835429 2.486857H526.628571c-5.193143 0-9.508571-4.608-9.508571-10.24v-61.44c0-5.705143 4.315429-10.24 9.508571-10.24h236.836572c5.266286 0 9.581714 4.608 9.581714 10.24v61.44c0 5.632-4.388571 10.24-9.581714 10.24z" fill="#495475" p-id="27691"></path></svg>